<?xml version="1.0" encoding="utf-8"?>
<!-- Generator: Adobe Illustrator 18.0.0, SVG Export Plug-In . SVG Version: 6.00 Build 0)  -->
<!DOCTYPE svg PUBLIC "-//W3C//DTD SVG 1.1//EN" "http://www.w3.org/Graphics/SVG/1.1/DTD/svg11.dtd">
<svg version="1.1" id="Layer_1" xmlns="http://www.w3.org/2000/svg" xmlns:xlink="http://www.w3.org/1999/xlink" x="0px" y="0px"
	 viewBox="0 0 75.8 74.9" enable-background="new 0 0 75.8 74.9" xml:space="preserve">
<g id="XMLID_110_">
	<path id="XMLID_1108_" fill="#80C568" d="M37.7,73.1L37.7,73.1C17.9,73.1,1.9,57,1.9,37.2v0c0-19.8,16.1-35.9,35.9-35.9l0,0
		c19.8,0,35.9,16.1,35.9,35.9v0C73.6,57,57.5,73.1,37.7,73.1z"/>
	<g id="XMLID_115_">
		<path id="XMLID_118_" fill-rule="evenodd" clip-rule="evenodd" fill="#FFFFFF" d="M57.4,36.2c-0.3-10.4-8.8-18.7-19.3-18.7
			c-10.4,0-18.8,8.1-19.3,18.3c0,0.3,0,0.6,0,0.8c0,3.6,1,7,2.8,9.9l-3.5,10.3l10.7-3.4c2.8,1.5,5.9,2.4,9.3,2.4
			c10.7,0,19.3-8.6,19.3-19.2C57.4,36.6,57.4,36.4,57.4,36.2z M38.1,52.8c-3.3,0-6.4-1-8.9-2.7l-6.2,2l2-6c-1.9-2.7-3.1-5.9-3.1-9.4
			c0-0.5,0-1,0.1-1.6c0.8-8.2,7.7-14.5,16.2-14.5c8.5,0,15.5,6.6,16.2,14.9c0,0.4,0.1,0.8,0.1,1.3C54.3,45.6,47,52.8,38.1,52.8z"/>
		<path id="XMLID_117_" fill-rule="evenodd" clip-rule="evenodd" fill="#FFFFFF" d="M46.9,40.6c-0.5-0.2-2.8-1.4-3.2-1.5
			c-0.4-0.2-0.8-0.2-1.1,0.2c-0.3,0.5-1.2,1.5-1.5,1.8c-0.3,0.3-0.6,0.4-1,0.1c-0.5-0.2-2-0.7-3.8-2.3c-1.4-1.2-2.4-2.8-2.6-3.2
			c-0.3-0.5,0-0.7,0.2-1c0.2-0.2,0.5-0.6,0.7-0.8c0.1-0.1,0.1-0.2,0.2-0.2c0.1-0.2,0.2-0.3,0.3-0.6c0.2-0.3,0.1-0.6,0-0.8
			s-1.1-2.5-1.5-3.5c-0.4-0.9-0.8-0.8-1.1-0.8c-0.3,0-0.6,0-0.9,0c-0.3,0-0.8,0.1-1.3,0.6c-0.4,0.5-1.7,1.6-1.7,3.9
			c0,0.5,0.1,1.1,0.2,1.6c0.5,1.7,1.5,3,1.7,3.3c0.2,0.3,3.3,5.2,8.1,7.1c4.8,1.9,4.8,1.2,5.7,1.2c0.9-0.1,2.8-1.1,3.2-2.2
			c0.4-1.1,0.4-2,0.3-2.2C47.7,40.9,47.4,40.8,46.9,40.6z"/>
	</g>
</g>
</svg>
