<svg height="512" viewBox="0 0 64 64" width="512" xmlns="http://www.w3.org/2000/svg"><path d="m32.707 8.293a1 1 0 0 0 -1.414 0l-21 21a2.043 2.043 0 0 0 -.194.293c-.01.021-.043.085-.048.1l-2 6a1 1 0 0 0 .242 1.023l1.293 1.291-2.293 2.293a1 1 0 0 0 0 1.414l7 7a1 1 0 0 0 1.414 0l2.293-2.293 1.293 1.293a1 1 0 0 0 1.024.241l.683-.228v4.28h-6a1 1 0 0 0 -1 1v8a1 1 0 0 0 1 1h24a1 1 0 0 0 1-1v-8a1 1 0 0 0 -1-1h-6v-12.586l14.707-14.707a1 1 0 0 0 0-1.414zm-17.707 38.293-5.586-5.586 1.586-1.586 5.586 5.586zm5.27-.731-10.126-10.126 1.293-3.877 9.563 9.562v4.2zm17.73 14.145h-22v-6h22zm-15-8v-18h8v18zm10-15.414v-3.586a1 1 0 0 0 -1-1h-10a1 1 0 0 0 -1 1v5.586l-5.586-5.586 10.293-10.293-1.414-1.414-10.293 10.293-1.586-1.586 15.586-15.586 13.586 13.586zm10-10-13.586-13.586 2.586-2.586 13.586 13.586z"/><path d="m34.586 28h2.828v2h-2.828z" transform="matrix(.707 -.707 .707 .707 -9.962 33.95)"/><path d="m18 56h2v2h-2z"/><path d="m34 56h2v2h-2z"/><path d="m45.964 6.5h7.071v2h-7.071z" transform="matrix(.707 -.707 .707 .707 9.195 37.198)"/><path d="m41 2h2v6h-2z"/><path d="m49 13h7v2h-7z"/></svg>