<?xml version="1.0" encoding="iso-8859-1"?>
<!-- Generator: Adobe Illustrator 19.0.0, SVG Export Plug-In . SVG Version: 6.00 Build 0)  -->
<svg version="1.1" id="Capa_1" xmlns="http://www.w3.org/2000/svg" xmlns:xlink="http://www.w3.org/1999/xlink" x="0px" y="0px"
	 viewBox="0 0 356 356" style="enable-background:new 0 0 356 356;" xml:space="preserve">
<g>
	<g>
		<g>
			<path d="M177.6,189.6c-13.2,0-25.2,5.6-34,14c-8.4,8.8-14,20.8-14,34s5.2,25.2,14,34s20.8,14,34,14s25.2-5.2,34-14s14-20.8,14-34
				s-5.2-25.2-14-34S190.8,189.6,177.6,189.6z M200,260.4c-5.6,5.6-13.6,9.2-22.4,9.2s-16.8-3.6-22.4-9.2
				c-5.6-5.6-9.2-13.6-9.2-22.4s3.6-16.8,9.2-22.4c5.6-5.6,13.6-9.2,22.4-9.2s16.8,3.6,22.4,9.2c5.6,5.6,9.2,13.6,9.2,22.4
				S205.6,254.8,200,260.4z"/>
			<path d="M177.6,112c6.8,0,12.8-2.8,17.2-7.2c4.4-4.4,7.2-10.4,7.2-17.2c0-6.4-2.8-12.4-6.8-16.8l-0.4-0.4
				c-4.4-4.4-10.4-7.2-17.2-7.2s-12.8,2.8-17.2,7.2c-4.4,4.4-7.2,10.4-7.2,17.2s2.8,12.8,7.2,17.2C164.8,109.2,170.8,112,177.6,112z
				 M172,82c1.6-1.6,3.6-2.4,5.6-2.4c2.4,0,4,0.8,5.6,2.4c1.6,1.6,2.4,3.6,2.4,5.6c0,2.4-1.2,4.4-2.4,5.6c-1.6,1.6-3.6,2.4-5.6,2.4
				c-2.4,0-4-0.8-5.6-2.4c-1.6-1.6-2.4-3.6-2.4-5.6C169.6,85.2,170.4,83.6,172,82z"/>
			<path d="M177.6,141.6c14.8,0,28.4-6.4,38-16c10-9.6,16-23.2,16-38c0-14.8-6.4-28-16-38c-9.6-10-23.2-16-38-16s-28.4,6-38,16
				c-10,9.6-16,23.2-16,38c0,14.8,6.4,28.4,16,38C149.2,135.6,162.8,141.6,177.6,141.6z M151.2,61.2c6.8-6.8,16-10.8,26.4-10.8
				c10.4,0,19.6,4,26.4,10.8c6.8,6.8,10.8,16,10.8,26.4c0,10.4-4,19.6-10.8,26.4c-6.8,6.8-16,10.8-26.4,10.8
				c-10.4,0-19.6-4-26.4-10.8c-6.8-6.8-10.8-16-10.8-26.4C140.4,77.2,144.4,68,151.2,61.2z"/>
			<path d="M177.6,153.6c-23.2,0-44.4,9.6-59.6,24.8c-15.2,15.2-24.8,36.4-24.8,59.6s9.6,44.4,24.8,59.6s36.4,24.8,59.6,24.8
				s44.4-9.6,59.6-24.8c15.2-15.2,24.8-36.4,24.8-59.6s-9.6-44.4-24.8-59.6C222,163.2,200.8,153.6,177.6,153.6z M225.6,286
				c-12.4,12.4-29.2,20-48,20s-35.6-7.6-48-20c-12.4-12.4-20-29.2-20-48s7.6-35.6,20-48c12.4-12.4,29.2-20,48-20s35.6,7.6,48,20
				c12.4,12.4,20,29.2,20,48S238,273.6,225.6,286z"/>
			<path d="M295.2,13.6C286.8,5.2,275.2,0,262.8,0H93.2c-12.8,0-24,5.2-32.4,13.6C52.4,22,47.2,33.6,47.2,46v264
				c0,12.4,5.2,24,13.2,32.4c8.4,8.4,20,13.6,32.4,13.6h170c12.8,0,24-5.2,32.4-13.6c8.4-8.4,13.6-20,13.6-32.4V46
				C308.8,33.2,303.6,22,295.2,13.6z M290.8,310c0,8-3.2,15.2-8.4,20.4c-5.2,5.2-12.4,8.4-20.4,8.4H92.4c-8,0-15.2-3.2-20.4-8.4
				c-5.2-5.2-8.4-12.4-8.4-20.4V46c0-8,3.2-15.2,8.8-20.4c5.2-5.2,12.4-8.4,20.4-8.4H262c8,0,15.2,3.2,20.4,8.4
				c5.2,5.2,8.4,12.4,8.4,20.4V310z"/>
		</g>
	</g>
</g>
<g>
</g>
<g>
</g>
<g>
</g>
<g>
</g>
<g>
</g>
<g>
</g>
<g>
</g>
<g>
</g>
<g>
</g>
<g>
</g>
<g>
</g>
<g>
</g>
<g>
</g>
<g>
</g>
<g>
</g>
</svg>
